# xmcd CD database file
#
# Track frame offsets:
#	150
#	965
#	22632
#	24749
#	53796
#	55858
#	92552
#	94612
#	147929
#	171966
#	173918
#	212242
#	213957
#	217524
#	259891
#	261595
#	276852
#	278842
#	302644
#	304626
#	338265
#
# Disc length: 4519 seconds
#
# Revision: 0
# Processed by: cddbd v1.5.1PL0 Copyright (c) Steve Scherf et al.
# Submitted via: CDex 1.51
#
DISCID=1911a515
DTITLE=Henri Texier - An Indian's Week
DYEAR=1993
DGENRE=Jazz
TTITLE0=Lundi
TTITLE1=Laguna Veneta
TTITLE2=Mardi
TTITLE3=Stanislas
TTITLE4=Mercredi
TTITLE5=Cyclosis
TTITLE6=Jeudi
TTITLE7=Indians/Desaprecido
TTITLE8=Simone Signoret
TTITLE9=Vendredi
TTITLE10=Amazone Blues
TTITLE11=Samedi
TTITLE12=Tzigane
TTITLE13=Mashala
TTITLE14=Samedi Soir
TTITLE15=The Bridge
TTITLE16=Dimanche
TTITLE17=Dont't Buy Ivory Anymore
TTITLE18=Dimanche Soir
TTITLE19=Laguna Laita
TTITLE20=Lundi (2)
EXTD=YEAR: 1993
EXTT0=
EXTT1=
EXTT2=
EXTT3=
EXTT4=
EXTT5=
EXTT6=
EXTT7=
EXTT8=
EXTT9=
EXTT10=
EXTT11=
EXTT12=
EXTT13=
EXTT14=
EXTT15=
EXTT16=
EXTT17=
EXTT18=
EXTT19=
EXTT20=
PLAYORDER=
